<mxfile host="65bd71144e">
    <diagram id="MDwBU82u5n9FyC_y0ygZ" name="Page-1">
        <mxGraphModel dx="2287" dy="2589" grid="1" gridSize="10" guides="1" tooltips="1" connect="1" arrows="1" fold="1" page="1" pageScale="1" pageWidth="827" pageHeight="1169" math="0" shadow="0">
            <root>
                <mxCell id="0"/>
                <mxCell id="1" parent="0"/>
                <mxCell id="13" value="" style="whiteSpace=wrap;html=1;shadow=1;fillColor=#FFFFFF;" parent="1" vertex="1">
                    <mxGeometry x="110" y="-230" width="1920" height="1070" as="geometry"/>
                </mxCell>
                <mxCell id="14" value="DNA_Env" style="swimlane;fontStyle=1;align=center;verticalAlign=middle;childLayout=stackLayout;horizontal=1;startSize=29;horizontalStack=0;resizeParent=1;resizeParentMax=0;resizeLast=0;collapsible=0;marginBottom=0;html=1;shadow=1;fillColor=#050505;strokeColor=#000305;" parent="1" vertex="1">
                    <mxGeometry x="220" y="80" width="340" height="540" as="geometry"/>
                </mxCell>
                <mxCell id="15" value="&lt;span style=&quot;background-color: initial; color: rgb(0, 3, 5);&quot;&gt;+ action_space : gym.space&lt;/span&gt;&lt;br&gt;&lt;span style=&quot;background-color: initial; color: rgb(0, 3, 5);&quot;&gt;+ observation_space : gym.space&lt;/span&gt;&lt;br&gt;&lt;font style=&quot;color: rgb(0, 3, 5); background-color: initial;&quot; color=&quot;#000305&quot;&gt;+ DNA_sequence_manager:&amp;nbsp;&lt;/font&gt;&lt;span style=&quot;color: rgb(0, 3, 5); background-color: initial;&quot;&gt;DNA_sequence_manager&lt;/span&gt;&lt;br&gt;&lt;span style=&quot;background-color: initial; color: rgb(0, 3, 5);&quot;&gt;+ actual_sequence : String&lt;/span&gt;&lt;br&gt;&lt;span style=&quot;background-color: initial; color: rgb(0, 3, 5);&quot;&gt;+ error_sequence : String&lt;/span&gt;&lt;br&gt;&lt;span style=&quot;background-color: initial; color: rgb(0, 3, 5);&quot;&gt;+ corrected_sequence : String&lt;/span&gt;&lt;br&gt;&lt;span style=&quot;background-color: initial; color: rgb(0, 3, 5);&quot;&gt;+ error_map : List&lt;/span&gt;&lt;br&gt;&lt;span style=&quot;background-color: initial; color: rgb(0, 3, 5);&quot;&gt;+ states : List&lt;/span&gt;&lt;br&gt;&lt;span style=&quot;background-color: initial; color: rgb(0, 3, 5);&quot;&gt;+ error_rate : float&lt;/span&gt;&lt;br&gt;&lt;span style=&quot;background-color: initial; color: rgb(0, 3, 5);&quot;&gt;+ error_seed : float&lt;/span&gt;&lt;br&gt;&lt;span style=&quot;background-color: initial; color: rgb(0, 3, 5);&quot;&gt;+ sequences_processed : Integer&lt;/span&gt;&lt;br&gt;&lt;span style=&quot;background-color: initial; color: rgb(0, 3, 5);&quot;&gt;+ use_bert_for_masked_lm : Bool&lt;/span&gt;&lt;br&gt;&lt;span style=&quot;background-color: initial; color: rgb(0, 3, 5);&quot;&gt;+ kmer_shift : Integer&lt;/span&gt;&lt;br&gt;&lt;span style=&quot;background-color: initial; color: rgb(0, 3, 5);&quot;&gt;+ errors_corrected : Integer&lt;/span&gt;&lt;br&gt;&lt;span style=&quot;background-color: initial; color: rgb(0, 3, 5);&quot;&gt;+ errors_found : Integer&lt;/span&gt;&lt;br&gt;&lt;span style=&quot;background-color: initial; color: rgb(0, 3, 5);&quot;&gt;+ errors_missed : Integer&lt;/span&gt;&lt;br&gt;&lt;span style=&quot;background-color: initial; color: rgb(0, 3, 5);&quot;&gt;+ errors_made : Integer&lt;br&gt;&lt;/span&gt;&lt;span style=&quot;background-color: initial; color: rgb(0, 3, 5);&quot;&gt;+ corrects_found : Integer&lt;/span&gt;&lt;span style=&quot;background-color: initial; color: rgb(0, 3, 5);&quot;&gt;&lt;br&gt;&lt;/span&gt;" style="text;html=1;strokeColor=#000000;fillColor=none;align=left;verticalAlign=middle;spacingLeft=4;spacingRight=4;overflow=hidden;rotatable=0;points=[[0,0.5],[1,0.5]];portConstraint=eastwest;shadow=1;" parent="14" vertex="1">
                    <mxGeometry y="29" width="340" height="281" as="geometry"/>
                </mxCell>
                <mxCell id="16" value="&lt;span style=&quot;background-color: rgb(255, 255, 255); color: rgb(0, 3, 5);&quot;&gt;+ prepare_sequence()&lt;/span&gt;&lt;br&gt;&lt;span style=&quot;color: rgb(0, 3, 5); background-color: rgb(255, 255, 255);&quot;&gt;+ get_action_space()&lt;/span&gt;&lt;br&gt;&lt;span style=&quot;color: rgb(0, 3, 5); background-color: rgb(255, 255, 255);&quot;&gt;+ get_observation_space()&lt;/span&gt;&lt;br&gt;&lt;span style=&quot;color: rgb(0, 3, 5); background-color: rgb(255, 255, 255);&quot;&gt;+ get_observation()&lt;/span&gt;&lt;br&gt;&lt;span style=&quot;color: rgb(0, 3, 5); background-color: rgb(255, 255, 255);&quot;&gt;+ apply_action(action)&lt;/span&gt;&lt;br&gt;&lt;span style=&quot;color: rgb(0, 3, 5); background-color: rgb(255, 255, 255);&quot;&gt;+ calculate_reward(action)&lt;/span&gt;&lt;br&gt;&lt;span style=&quot;color: rgb(0, 3, 5); background-color: rgb(255, 255, 255);&quot;&gt;+ update(action)&lt;/span&gt;&lt;br&gt;&lt;span style=&quot;color: rgb(0, 3, 5); background-color: rgb(255, 255, 255);&quot;&gt;+ is_done(action)&lt;/span&gt;&lt;br&gt;&lt;span style=&quot;color: rgb(0, 3, 5); background-color: rgb(255, 255, 255);&quot;&gt;+ step(action)&lt;/span&gt;&lt;br&gt;&lt;span style=&quot;color: rgb(0, 3, 5); background-color: rgb(255, 255, 255);&quot;&gt;+ reset()&lt;/span&gt;&lt;br&gt;&lt;span style=&quot;color: rgb(0, 3, 5); background-color: rgb(255, 255, 255);&quot;&gt;+ render()&lt;/span&gt;&lt;br&gt;&lt;span style=&quot;background-color: rgb(255, 255, 255); color: rgb(0, 3, 5);&quot;&gt;+ get_plot_data()&lt;/span&gt;&lt;br&gt;&lt;span style=&quot;color: rgb(0, 3, 5); background-color: rgb(255, 255, 255);&quot;&gt;&lt;div style=&quot;&quot;&gt;+ set_plot_data(errors_corrected, errors_found,&amp;nbsp;&lt;/div&gt;&lt;div style=&quot;&quot;&gt;&amp;nbsp; &amp;nbsp; &amp;nbsp; &amp;nbsp;errors_missed, errors_made, corrects_found)&lt;/div&gt;&lt;/span&gt;&lt;span style=&quot;background-color: rgb(255, 255, 255);&quot;&gt;&lt;div style=&quot;text-align: center;&quot;&gt;&lt;font color=&quot;#000305&quot;&gt;&lt;br&gt;&lt;/font&gt;&lt;/div&gt;&lt;/span&gt;" style="text;html=1;strokeColor=#080808;fillColor=none;align=left;verticalAlign=middle;spacingLeft=4;spacingRight=4;overflow=hidden;rotatable=0;points=[[0,0.5],[1,0.5]];portConstraint=eastwest;shadow=0;" parent="14" vertex="1">
                    <mxGeometry y="310" width="340" height="230" as="geometry"/>
                </mxCell>
                <mxCell id="39" value="" style="edgeStyle=none;html=1;strokeColor=#000305;fontColor=#000305;fillColor=#000305;endArrow=block;endFill=0;strokeWidth=2;endSize=16;entryX=1;entryY=0.146;entryDx=0;entryDy=0;entryPerimeter=0;" parent="1" source="22" target="15" edge="1">
                    <mxGeometry relative="1" as="geometry"/>
                </mxCell>
                <mxCell id="22" value="DNA_Sequential_Processing_Env" style="swimlane;fontStyle=1;align=center;verticalAlign=middle;childLayout=stackLayout;horizontal=1;startSize=29;horizontalStack=0;resizeParent=1;resizeParentMax=0;resizeLast=0;collapsible=0;marginBottom=0;html=1;shadow=1;fillColor=#050505;strokeColor=#000305;" parent="1" vertex="1">
                    <mxGeometry x="700" y="30" width="230" height="90" as="geometry"/>
                </mxCell>
                <mxCell id="23" value="&lt;span style=&quot;background-color: initial; color: rgb(0, 3, 5);&quot;&gt;&lt;br&gt;&lt;/span&gt;" style="text;html=1;strokeColor=#000000;fillColor=none;align=left;verticalAlign=middle;spacingLeft=4;spacingRight=4;overflow=hidden;rotatable=0;points=[[0,0.5],[1,0.5]];portConstraint=eastwest;shadow=1;" parent="22" vertex="1">
                    <mxGeometry y="29" width="230" height="21" as="geometry"/>
                </mxCell>
                <mxCell id="24" value="&lt;span style=&quot;color: rgb(0, 3, 5); background-color: rgb(255, 255, 255);&quot;&gt;+ get_observation_space()&lt;/span&gt;&lt;br&gt;&lt;span style=&quot;color: rgb(0, 3, 5); background-color: rgb(255, 255, 255);&quot;&gt;+ get_observation()&lt;/span&gt;&lt;br&gt;&lt;span style=&quot;background-color: rgb(255, 255, 255);&quot;&gt;&lt;div style=&quot;text-align: center;&quot;&gt;&lt;font color=&quot;#000305&quot;&gt;&lt;br&gt;&lt;/font&gt;&lt;/div&gt;&lt;/span&gt;" style="text;html=1;strokeColor=#080808;fillColor=none;align=left;verticalAlign=middle;spacingLeft=4;spacingRight=4;overflow=hidden;rotatable=0;points=[[0,0.5],[1,0.5]];portConstraint=eastwest;shadow=0;" parent="22" vertex="1">
                    <mxGeometry y="50" width="230" height="40" as="geometry"/>
                </mxCell>
                <mxCell id="25" value="DNA_Processing_By_Nucleotide_Env" style="swimlane;fontStyle=1;align=center;verticalAlign=middle;childLayout=stackLayout;horizontal=1;startSize=29;horizontalStack=0;resizeParent=1;resizeParentMax=0;resizeLast=0;collapsible=0;marginBottom=0;html=1;shadow=1;fillColor=#050505;strokeColor=#000305;" parent="1" vertex="1">
                    <mxGeometry x="700" y="230" width="230" height="90" as="geometry"/>
                </mxCell>
                <mxCell id="26" value="&lt;span style=&quot;background-color: initial; color: rgb(0, 3, 5);&quot;&gt;&lt;br&gt;&lt;/span&gt;" style="text;html=1;strokeColor=#000000;fillColor=none;align=left;verticalAlign=middle;spacingLeft=4;spacingRight=4;overflow=hidden;rotatable=0;points=[[0,0.5],[1,0.5]];portConstraint=eastwest;shadow=1;" parent="25" vertex="1">
                    <mxGeometry y="29" width="230" height="21" as="geometry"/>
                </mxCell>
                <mxCell id="27" value="&lt;span style=&quot;color: rgb(0, 3, 5); background-color: rgb(255, 255, 255);&quot;&gt;+ get_observation_space()&lt;/span&gt;&lt;br&gt;&lt;span style=&quot;color: rgb(0, 3, 5); background-color: rgb(255, 255, 255);&quot;&gt;+ get_observation()&lt;/span&gt;&lt;br&gt;&lt;span style=&quot;background-color: rgb(255, 255, 255);&quot;&gt;&lt;div style=&quot;text-align: center;&quot;&gt;&lt;font color=&quot;#000305&quot;&gt;&lt;br&gt;&lt;/font&gt;&lt;/div&gt;&lt;/span&gt;" style="text;html=1;strokeColor=#080808;fillColor=none;align=left;verticalAlign=middle;spacingLeft=4;spacingRight=4;overflow=hidden;rotatable=0;points=[[0,0.5],[1,0.5]];portConstraint=eastwest;shadow=0;" parent="25" vertex="1">
                    <mxGeometry y="50" width="230" height="40" as="geometry"/>
                </mxCell>
                <mxCell id="28" value="DNA_Single_Run_Env" style="swimlane;fontStyle=1;align=center;verticalAlign=middle;childLayout=stackLayout;horizontal=1;startSize=29;horizontalStack=0;resizeParent=1;resizeParentMax=0;resizeLast=0;collapsible=0;marginBottom=0;html=1;shadow=1;fillColor=#050505;strokeColor=#000305;" parent="1" vertex="1">
                    <mxGeometry x="1100" y="270" width="230" height="90" as="geometry"/>
                </mxCell>
                <mxCell id="29" value="&lt;span style=&quot;background-color: initial; color: rgb(0, 3, 5);&quot;&gt;&lt;br&gt;&lt;/span&gt;" style="text;html=1;strokeColor=#000000;fillColor=none;align=left;verticalAlign=middle;spacingLeft=4;spacingRight=4;overflow=hidden;rotatable=0;points=[[0,0.5],[1,0.5]];portConstraint=eastwest;shadow=1;" parent="28" vertex="1">
                    <mxGeometry y="29" width="230" height="21" as="geometry"/>
                </mxCell>
                <mxCell id="30" value="&lt;span style=&quot;color: rgb(0, 3, 5); background-color: rgb(255, 255, 255);&quot;&gt;+ get_action_space()&lt;/span&gt;&lt;br&gt;&lt;span style=&quot;color: rgb(0, 3, 5); background-color: rgb(255, 255, 255);&quot;&gt;+ is_done(action)&lt;/span&gt;&lt;br&gt;&lt;span style=&quot;background-color: rgb(255, 255, 255);&quot;&gt;&lt;div style=&quot;text-align: center;&quot;&gt;&lt;font color=&quot;#000305&quot;&gt;&lt;br&gt;&lt;/font&gt;&lt;/div&gt;&lt;/span&gt;" style="text;html=1;strokeColor=#080808;fillColor=none;align=left;verticalAlign=middle;spacingLeft=4;spacingRight=4;overflow=hidden;rotatable=0;points=[[0,0.5],[1,0.5]];portConstraint=eastwest;shadow=0;" parent="28" vertex="1">
                    <mxGeometry y="50" width="230" height="40" as="geometry"/>
                </mxCell>
                <mxCell id="43" style="edgeStyle=none;html=1;entryX=1;entryY=0.25;entryDx=0;entryDy=0;strokeColor=#000305;strokeWidth=2;fontColor=#000305;endArrow=block;endFill=0;endSize=16;fillColor=#000305;" parent="1" source="31" target="25" edge="1">
                    <mxGeometry relative="1" as="geometry">
                        <Array as="points">
                            <mxPoint x="1230" y="255"/>
                        </Array>
                    </mxGeometry>
                </mxCell>
                <mxCell id="31" value="DNA_Single_Action_Per_Run_Env" style="swimlane;fontStyle=1;align=center;verticalAlign=middle;childLayout=stackLayout;horizontal=1;startSize=29;horizontalStack=0;resizeParent=1;resizeParentMax=0;resizeLast=0;collapsible=0;marginBottom=0;html=1;shadow=1;fillColor=#050505;strokeColor=#000305;" parent="1" vertex="1">
                    <mxGeometry x="1400" y="180" width="230" height="160" as="geometry"/>
                </mxCell>
                <mxCell id="32" value="&lt;span style=&quot;background-color: initial; color: rgb(0, 3, 5);&quot;&gt;&lt;br&gt;&lt;/span&gt;" style="text;html=1;strokeColor=#000000;fillColor=none;align=left;verticalAlign=middle;spacingLeft=4;spacingRight=4;overflow=hidden;rotatable=0;points=[[0,0.5],[1,0.5]];portConstraint=eastwest;shadow=1;" parent="31" vertex="1">
                    <mxGeometry y="29" width="230" height="21" as="geometry"/>
                </mxCell>
                <mxCell id="33" value="&lt;span style=&quot;color: rgb(0, 3, 5); background-color: rgb(255, 255, 255);&quot;&gt;+ get_action_space()&lt;/span&gt;&lt;br&gt;&lt;span style=&quot;color: rgb(0, 3, 5); background-color: rgb(255, 255, 255);&quot;&gt;+ apply_action(action)&lt;br&gt;+ calculate_reward(action)&lt;br&gt;+ update(action)&lt;br&gt;+ is_done(action)&lt;/span&gt;" style="text;html=1;strokeColor=#080808;fillColor=none;align=left;verticalAlign=middle;spacingLeft=4;spacingRight=4;overflow=hidden;rotatable=0;points=[[0,0.5],[1,0.5]];portConstraint=eastwest;shadow=0;" parent="31" vertex="1">
                    <mxGeometry y="50" width="230" height="110" as="geometry"/>
                </mxCell>
                <mxCell id="42" style="edgeStyle=none;html=1;strokeColor=#000305;strokeWidth=2;fontColor=#000305;endArrow=block;endFill=0;endSize=16;fillColor=#000305;exitX=0;exitY=0.5;exitDx=0;exitDy=0;entryX=1;entryY=0.5;entryDx=0;entryDy=0;" parent="1" source="26" target="15" edge="1">
                    <mxGeometry relative="1" as="geometry">
                        <mxPoint x="561" y="150" as="targetPoint"/>
                    </mxGeometry>
                </mxCell>
                <mxCell id="44" style="edgeStyle=none;html=1;strokeColor=#000305;strokeWidth=2;fontColor=#000305;endArrow=block;endFill=0;endSize=16;fillColor=#000305;entryX=1;entryY=0.5;entryDx=0;entryDy=0;" parent="1" source="29" target="27" edge="1">
                    <mxGeometry relative="1" as="geometry">
                        <mxPoint x="930" y="270" as="targetPoint"/>
                    </mxGeometry>
                </mxCell>
                <mxCell id="45" value="DNA_Correction_Env" style="swimlane;fontStyle=1;align=center;verticalAlign=middle;childLayout=stackLayout;horizontal=1;startSize=29;horizontalStack=0;resizeParent=1;resizeParentMax=0;resizeLast=0;collapsible=0;marginBottom=0;html=1;shadow=1;fillColor=#050505;strokeColor=#000305;" parent="1" vertex="1">
                    <mxGeometry x="700" y="595" width="230" height="90" as="geometry"/>
                </mxCell>
                <mxCell id="46" value="&lt;span style=&quot;background-color: initial; color: rgb(0, 3, 5);&quot;&gt;&lt;br&gt;&lt;/span&gt;" style="text;html=1;strokeColor=#000000;fillColor=none;align=left;verticalAlign=middle;spacingLeft=4;spacingRight=4;overflow=hidden;rotatable=0;points=[[0,0.5],[1,0.5]];portConstraint=eastwest;shadow=1;" parent="45" vertex="1">
                    <mxGeometry y="29" width="230" height="21" as="geometry"/>
                </mxCell>
                <mxCell id="47" value="&lt;span style=&quot;color: rgb(0, 3, 5); background-color: rgb(255, 255, 255);&quot;&gt;+ get_action_space_size()&lt;/span&gt;&lt;br&gt;&lt;span style=&quot;background-color: rgb(255, 255, 255);&quot;&gt;&lt;/span&gt;" style="text;html=1;strokeColor=#080808;fillColor=none;align=left;verticalAlign=middle;spacingLeft=4;spacingRight=4;overflow=hidden;rotatable=0;points=[[0,0.5],[1,0.5]];portConstraint=eastwest;shadow=0;" parent="45" vertex="1">
                    <mxGeometry y="50" width="230" height="40" as="geometry"/>
                </mxCell>
                <mxCell id="48" value="DNA_Detection_Env" style="swimlane;fontStyle=1;align=center;verticalAlign=middle;childLayout=stackLayout;horizontal=1;startSize=29;horizontalStack=0;resizeParent=1;resizeParentMax=0;resizeLast=0;collapsible=0;marginBottom=0;html=1;shadow=1;fillColor=#050505;strokeColor=#000305;" parent="1" vertex="1">
                    <mxGeometry x="700" y="450" width="230" height="90" as="geometry"/>
                </mxCell>
                <mxCell id="49" value="&lt;span style=&quot;background-color: initial; color: rgb(0, 3, 5);&quot;&gt;&lt;br&gt;&lt;/span&gt;" style="text;html=1;strokeColor=#000000;fillColor=none;align=left;verticalAlign=middle;spacingLeft=4;spacingRight=4;overflow=hidden;rotatable=0;points=[[0,0.5],[1,0.5]];portConstraint=eastwest;shadow=1;" parent="48" vertex="1">
                    <mxGeometry y="29" width="230" height="21" as="geometry"/>
                </mxCell>
                <mxCell id="50" value="&lt;span style=&quot;color: rgb(0, 3, 5); background-color: rgb(255, 255, 255);&quot;&gt;+ get_action_space_size()&lt;/span&gt;&lt;br&gt;&lt;span style=&quot;background-color: rgb(255, 255, 255);&quot;&gt;&lt;div style=&quot;text-align: center;&quot;&gt;&lt;font color=&quot;#000305&quot;&gt;&lt;br&gt;&lt;/font&gt;&lt;/div&gt;&lt;/span&gt;" style="text;html=1;strokeColor=#080808;fillColor=none;align=left;verticalAlign=middle;spacingLeft=4;spacingRight=4;overflow=hidden;rotatable=0;points=[[0,0.5],[1,0.5]];portConstraint=eastwest;shadow=0;" parent="48" vertex="1">
                    <mxGeometry y="50" width="230" height="40" as="geometry"/>
                </mxCell>
                <mxCell id="52" value="" style="edgeStyle=none;html=1;strokeColor=#000305;fontColor=#000305;fillColor=#000305;endArrow=block;endFill=0;strokeWidth=2;endSize=16;entryX=0.997;entryY=0.329;entryDx=0;entryDy=0;entryPerimeter=0;exitX=0;exitY=0.5;exitDx=0;exitDy=0;" parent="1" source="49" target="16" edge="1">
                    <mxGeometry relative="1" as="geometry">
                        <mxPoint x="710" y="314.5705882352943" as="sourcePoint"/>
                        <mxPoint x="570" y="289.70000000000005" as="targetPoint"/>
                    </mxGeometry>
                </mxCell>
                <mxCell id="53" value="" style="edgeStyle=none;html=1;strokeColor=#000305;fontColor=#000305;fillColor=#000305;endArrow=block;endFill=0;strokeWidth=2;endSize=16;entryX=1.011;entryY=0.829;entryDx=0;entryDy=0;entryPerimeter=0;exitX=0;exitY=0.5;exitDx=0;exitDy=0;" parent="1" source="46" target="16" edge="1">
                    <mxGeometry relative="1" as="geometry">
                        <mxPoint x="720" y="324.5705882352943" as="sourcePoint"/>
                        <mxPoint x="580" y="299.70000000000005" as="targetPoint"/>
                    </mxGeometry>
                </mxCell>
                <mxCell id="54" value="DNA_Detection_Single_Run_Env" style="swimlane;fontStyle=1;align=center;verticalAlign=middle;childLayout=stackLayout;horizontal=1;startSize=29;horizontalStack=0;resizeParent=1;resizeParentMax=0;resizeLast=0;collapsible=0;marginBottom=0;html=1;shadow=1;fillColor=#006600;strokeColor=#000305;" parent="1" vertex="1">
                    <mxGeometry x="1150" y="490" width="230" height="130" as="geometry"/>
                </mxCell>
                <mxCell id="55" value="&lt;span style=&quot;background-color: initial; color: rgb(0, 3, 5);&quot;&gt;&lt;br&gt;&lt;/span&gt;" style="text;html=1;strokeColor=#000000;fillColor=none;align=left;verticalAlign=middle;spacingLeft=4;spacingRight=4;overflow=hidden;rotatable=0;points=[[0,0.5],[1,0.5]];portConstraint=eastwest;shadow=1;" parent="54" vertex="1">
                    <mxGeometry y="29" width="230" height="21" as="geometry"/>
                </mxCell>
                <mxCell id="56" value="&lt;span style=&quot;color: rgb(0, 3, 5); background-color: rgb(255, 255, 255);&quot;&gt;+ get_action_space()&lt;/span&gt;&lt;br&gt;&lt;span style=&quot;color: rgb(0, 3, 5); background-color: rgb(255, 255, 255);&quot;&gt;+ apply_action(action)&lt;br&gt;+ calculate_reward(action)&lt;br&gt;+ update(action)&lt;br&gt;+ is_done(action)&lt;/span&gt;" style="text;html=1;strokeColor=#080808;fillColor=none;align=left;verticalAlign=middle;spacingLeft=4;spacingRight=4;overflow=hidden;rotatable=0;points=[[0,0.5],[1,0.5]];portConstraint=eastwest;shadow=0;" parent="54" vertex="1">
                    <mxGeometry y="50" width="230" height="80" as="geometry"/>
                </mxCell>
                <mxCell id="57" value="DNA_Detection_Sequential_Env" style="swimlane;fontStyle=1;align=center;verticalAlign=middle;childLayout=stackLayout;horizontal=1;startSize=29;horizontalStack=0;resizeParent=1;resizeParentMax=0;resizeLast=0;collapsible=0;marginBottom=0;html=1;shadow=1;fillColor=#006600;strokeColor=#000305;" parent="1" vertex="1">
                    <mxGeometry x="1040" y="-80" width="230" height="140" as="geometry"/>
                </mxCell>
                <mxCell id="58" value="&lt;span style=&quot;background-color: initial; color: rgb(0, 3, 5);&quot;&gt;&lt;br&gt;&lt;/span&gt;" style="text;html=1;strokeColor=#000000;fillColor=none;align=left;verticalAlign=middle;spacingLeft=4;spacingRight=4;overflow=hidden;rotatable=0;points=[[0,0.5],[1,0.5]];portConstraint=eastwest;shadow=1;" parent="57" vertex="1">
                    <mxGeometry y="29" width="230" height="21" as="geometry"/>
                </mxCell>
                <mxCell id="59" value="&lt;span style=&quot;color: rgb(0, 3, 5); background-color: rgb(255, 255, 255);&quot;&gt;+ get_action_space()&lt;/span&gt;&lt;br&gt;&lt;span style=&quot;color: rgb(0, 3, 5); background-color: rgb(255, 255, 255);&quot;&gt;+ apply_action(action)&lt;br&gt;+ calculate_reward(action)&lt;br&gt;+ update(action)&lt;br&gt;+ is_done(action)&lt;br&gt;+ mask_current_base(action)&lt;br&gt;&lt;/span&gt;" style="text;html=1;strokeColor=#080808;fillColor=none;align=left;verticalAlign=middle;spacingLeft=4;spacingRight=4;overflow=hidden;rotatable=0;points=[[0,0.5],[1,0.5]];portConstraint=eastwest;shadow=0;" parent="57" vertex="1">
                    <mxGeometry y="50" width="230" height="90" as="geometry"/>
                </mxCell>
                <mxCell id="60" value="DNA_Corretion_Sequential_Env" style="swimlane;fontStyle=1;align=center;verticalAlign=middle;childLayout=stackLayout;horizontal=1;startSize=29;horizontalStack=0;resizeParent=1;resizeParentMax=0;resizeLast=0;collapsible=0;marginBottom=0;html=1;shadow=1;fillColor=#006600;strokeColor=#000305;" parent="1" vertex="1">
                    <mxGeometry x="1040" y="90" width="230" height="130" as="geometry"/>
                </mxCell>
                <mxCell id="61" value="&lt;span style=&quot;background-color: initial; color: rgb(0, 3, 5);&quot;&gt;&lt;br&gt;&lt;/span&gt;" style="text;html=1;strokeColor=#000000;fillColor=none;align=left;verticalAlign=middle;spacingLeft=4;spacingRight=4;overflow=hidden;rotatable=0;points=[[0,0.5],[1,0.5]];portConstraint=eastwest;shadow=1;" parent="60" vertex="1">
                    <mxGeometry y="29" width="230" height="21" as="geometry"/>
                </mxCell>
                <mxCell id="62" value="&lt;span style=&quot;color: rgb(0, 3, 5); background-color: rgb(255, 255, 255);&quot;&gt;+ get_action_space()&lt;/span&gt;&lt;br&gt;&lt;span style=&quot;color: rgb(0, 3, 5); background-color: rgb(255, 255, 255);&quot;&gt;+ apply_action(action)&lt;br&gt;+ calculate_reward(action)&lt;br&gt;+ update(action)&lt;br&gt;+ is_done(action)&lt;/span&gt;" style="text;html=1;strokeColor=#080808;fillColor=none;align=left;verticalAlign=middle;spacingLeft=4;spacingRight=4;overflow=hidden;rotatable=0;points=[[0,0.5],[1,0.5]];portConstraint=eastwest;shadow=0;" parent="60" vertex="1">
                    <mxGeometry y="50" width="230" height="80" as="geometry"/>
                </mxCell>
                <mxCell id="63" style="edgeStyle=none;html=1;entryX=1;entryY=0.25;entryDx=0;entryDy=0;strokeColor=#000305;strokeWidth=2;fontColor=#000305;endArrow=block;endFill=0;endSize=16;fillColor=#000305;exitX=-0.007;exitY=0.93;exitDx=0;exitDy=0;exitPerimeter=0;" parent="1" source="59" target="22" edge="1">
                    <mxGeometry relative="1" as="geometry">
                        <mxPoint x="1320" y="159.50000000000023" as="sourcePoint"/>
                        <mxPoint x="940" y="159.50000000000023" as="targetPoint"/>
                    </mxGeometry>
                </mxCell>
                <mxCell id="64" style="edgeStyle=none;html=1;strokeColor=#000305;strokeWidth=2;fontColor=#000305;endArrow=block;endFill=0;endSize=16;fillColor=#000305;exitX=0.009;exitY=-0.34;exitDx=0;exitDy=0;exitPerimeter=0;" parent="1" source="61" edge="1">
                    <mxGeometry relative="1" as="geometry">
                        <mxPoint x="1039" y="109" as="sourcePoint"/>
                        <mxPoint x="930" y="110" as="targetPoint"/>
                    </mxGeometry>
                </mxCell>
                <mxCell id="65" style="edgeStyle=none;html=1;entryX=1;entryY=0.5;entryDx=0;entryDy=0;strokeColor=#000305;strokeWidth=2;fontColor=#000305;endArrow=block;endFill=0;endSize=16;fillColor=#000305;exitX=0.001;exitY=0.753;exitDx=0;exitDy=0;exitPerimeter=0;" parent="1" source="59" target="49" edge="1">
                    <mxGeometry relative="1" as="geometry">
                        <mxPoint x="1050" y="280" as="sourcePoint"/>
                        <mxPoint x="940" y="292.5" as="targetPoint"/>
                        <Array as="points">
                            <mxPoint x="980" y="38"/>
                            <mxPoint x="980" y="490"/>
                        </Array>
                    </mxGeometry>
                </mxCell>
                <mxCell id="66" style="edgeStyle=none;html=1;entryX=1;entryY=0.25;entryDx=0;entryDy=0;strokeColor=#000305;strokeWidth=2;fontColor=#000305;endArrow=block;endFill=0;endSize=16;fillColor=#000305;exitX=0;exitY=0.5;exitDx=0;exitDy=0;" parent="1" source="62" target="45" edge="1">
                    <mxGeometry relative="1" as="geometry">
                        <mxPoint x="1050" y="410" as="sourcePoint"/>
                        <mxPoint x="930" y="584.5000000000002" as="targetPoint"/>
                        <Array as="points">
                            <mxPoint x="1020" y="180"/>
                            <mxPoint x="1020" y="618"/>
                        </Array>
                    </mxGeometry>
                </mxCell>
                <mxCell id="67" value="DNA_Detection_Single_Action_Per_Run_Env" style="swimlane;fontStyle=1;align=center;verticalAlign=middle;childLayout=stackLayout;horizontal=1;startSize=29;horizontalStack=0;resizeParent=1;resizeParentMax=0;resizeLast=0;collapsible=0;marginBottom=0;html=1;shadow=1;fillColor=#006600;strokeColor=#000305;" parent="1" vertex="1">
                    <mxGeometry x="1410" y="420" width="280" height="90" as="geometry"/>
                </mxCell>
                <mxCell id="68" value="&lt;span style=&quot;background-color: initial; color: rgb(0, 3, 5);&quot;&gt;&lt;br&gt;&lt;/span&gt;" style="text;html=1;strokeColor=#000000;fillColor=none;align=left;verticalAlign=middle;spacingLeft=4;spacingRight=4;overflow=hidden;rotatable=0;points=[[0,0.5],[1,0.5]];portConstraint=eastwest;shadow=1;" parent="67" vertex="1">
                    <mxGeometry y="29" width="280" height="21" as="geometry"/>
                </mxCell>
                <mxCell id="69" value="&lt;span style=&quot;color: rgb(0, 3, 5); background-color: rgb(255, 255, 255);&quot;&gt;+ get_action_space()&lt;/span&gt;&lt;br&gt;&lt;span style=&quot;color: rgb(0, 3, 5); background-color: rgb(255, 255, 255);&quot;&gt;+ is_done(action)&lt;/span&gt;&lt;br&gt;&lt;span style=&quot;background-color: rgb(255, 255, 255);&quot;&gt;&lt;div style=&quot;text-align: center;&quot;&gt;&lt;font color=&quot;#000305&quot;&gt;&lt;br&gt;&lt;/font&gt;&lt;/div&gt;&lt;/span&gt;" style="text;html=1;strokeColor=#080808;fillColor=none;align=left;verticalAlign=middle;spacingLeft=4;spacingRight=4;overflow=hidden;rotatable=0;points=[[0,0.5],[1,0.5]];portConstraint=eastwest;shadow=0;" parent="67" vertex="1">
                    <mxGeometry y="50" width="280" height="40" as="geometry"/>
                </mxCell>
                <mxCell id="70" style="edgeStyle=none;html=1;strokeColor=#000305;strokeWidth=2;fontColor=#000305;endArrow=block;endFill=0;endSize=16;fillColor=#000305;exitX=0.301;exitY=-0.005;exitDx=0;exitDy=0;exitPerimeter=0;" parent="1" source="54" target="30" edge="1">
                    <mxGeometry relative="1" as="geometry">
                        <mxPoint x="1110" y="315.66666666666674" as="sourcePoint"/>
                        <mxPoint x="940" y="310" as="targetPoint"/>
                    </mxGeometry>
                </mxCell>
                <mxCell id="71" style="edgeStyle=none;html=1;strokeColor=#000305;strokeWidth=2;fontColor=#000305;endArrow=block;endFill=0;endSize=16;fillColor=#000305;exitX=0;exitY=0.25;exitDx=0;exitDy=0;entryX=1;entryY=0.5;entryDx=0;entryDy=0;" parent="1" source="54" target="50" edge="1">
                    <mxGeometry relative="1" as="geometry">
                        <mxPoint x="1225" y="425" as="sourcePoint"/>
                        <mxPoint x="1225" y="370" as="targetPoint"/>
                    </mxGeometry>
                </mxCell>
                <mxCell id="72" style="edgeStyle=none;html=1;strokeColor=#000305;strokeWidth=2;fontColor=#000305;endArrow=block;endFill=0;endSize=16;fillColor=#000305;exitX=0;exitY=0.25;exitDx=0;exitDy=0;" parent="1" source="67" edge="1">
                    <mxGeometry relative="1" as="geometry">
                        <mxPoint x="1110" y="532.5" as="sourcePoint"/>
                        <mxPoint x="930" y="520" as="targetPoint"/>
                        <Array as="points">
                            <mxPoint x="1070" y="443"/>
                            <mxPoint x="1070" y="520"/>
                        </Array>
                    </mxGeometry>
                </mxCell>
                <mxCell id="73" style="edgeStyle=none;html=1;strokeColor=#000305;strokeWidth=2;fontColor=#000305;endArrow=block;endFill=0;endSize=16;fillColor=#000305;exitX=0.376;exitY=-0.012;exitDx=0;exitDy=0;entryX=0.496;entryY=0.999;entryDx=0;entryDy=0;entryPerimeter=0;exitPerimeter=0;" parent="1" source="67" target="33" edge="1">
                    <mxGeometry relative="1" as="geometry">
                        <mxPoint x="1225" y="510" as="sourcePoint"/>
                        <mxPoint x="1225" y="370" as="targetPoint"/>
                    </mxGeometry>
                </mxCell>
                <mxCell id="74" value="DNA_Correction_Single_Run_Env" style="swimlane;fontStyle=1;align=center;verticalAlign=middle;childLayout=stackLayout;horizontal=1;startSize=29;horizontalStack=0;resizeParent=1;resizeParentMax=0;resizeLast=0;collapsible=0;marginBottom=0;html=1;shadow=1;fillColor=#006600;strokeColor=#000305;" parent="1" vertex="1">
                    <mxGeometry x="1090" y="650" width="230" height="140" as="geometry"/>
                </mxCell>
                <mxCell id="75" value="&lt;span style=&quot;background-color: initial; color: rgb(0, 3, 5);&quot;&gt;&lt;br&gt;&lt;/span&gt;" style="text;html=1;strokeColor=#000000;fillColor=none;align=left;verticalAlign=middle;spacingLeft=4;spacingRight=4;overflow=hidden;rotatable=0;points=[[0,0.5],[1,0.5]];portConstraint=eastwest;shadow=1;" parent="74" vertex="1">
                    <mxGeometry y="29" width="230" height="21" as="geometry"/>
                </mxCell>
                <mxCell id="76" value="&lt;span style=&quot;color: rgb(0, 3, 5); background-color: rgb(255, 255, 255);&quot;&gt;+ get_action_space()&lt;/span&gt;&lt;br&gt;&lt;span style=&quot;color: rgb(0, 3, 5); background-color: rgb(255, 255, 255);&quot;&gt;+ apply_action(action)&lt;br&gt;+ calculate_reward(action)&lt;br&gt;+ update(action)&lt;br&gt;+ is_done(action)&lt;/span&gt;" style="text;html=1;strokeColor=#080808;fillColor=none;align=left;verticalAlign=middle;spacingLeft=4;spacingRight=4;overflow=hidden;rotatable=0;points=[[0,0.5],[1,0.5]];portConstraint=eastwest;shadow=0;" parent="74" vertex="1">
                    <mxGeometry y="50" width="230" height="90" as="geometry"/>
                </mxCell>
                <mxCell id="77" style="edgeStyle=none;html=1;strokeColor=#000305;strokeWidth=2;fontColor=#000305;endArrow=block;endFill=0;endSize=16;fillColor=#000305;exitX=0.001;exitY=0.126;exitDx=0;exitDy=0;entryX=1;entryY=0.5;entryDx=0;entryDy=0;exitPerimeter=0;" parent="1" source="74" target="47" edge="1">
                    <mxGeometry relative="1" as="geometry">
                        <mxPoint x="1110" y="532.5" as="sourcePoint"/>
                        <mxPoint x="940" y="530" as="targetPoint"/>
                    </mxGeometry>
                </mxCell>
                <mxCell id="80" value="DNA_Detection_With_DNABERT_Masking_Env" style="swimlane;fontStyle=1;align=center;verticalAlign=middle;childLayout=stackLayout;horizontal=1;startSize=29;horizontalStack=0;resizeParent=1;resizeParentMax=0;resizeLast=0;collapsible=0;marginBottom=0;html=1;shadow=1;fillColor=#006600;strokeColor=#000305;" vertex="1" parent="1">
                    <mxGeometry x="1456" y="620" width="290" height="140" as="geometry"/>
                </mxCell>
                <mxCell id="81" value="&lt;span style=&quot;background-color: initial; color: rgb(0, 3, 5);&quot;&gt;+ masked_bert_state : Array&lt;br&gt;&lt;/span&gt;" style="text;html=1;strokeColor=#000000;fillColor=none;align=left;verticalAlign=middle;spacingLeft=4;spacingRight=4;overflow=hidden;rotatable=0;points=[[0,0.5],[1,0.5]];portConstraint=eastwest;shadow=1;" vertex="1" parent="80">
                    <mxGeometry y="29" width="290" height="31" as="geometry"/>
                </mxCell>
                <mxCell id="82" value="&lt;span style=&quot;color: rgb(0, 3, 5); background-color: rgb(255, 255, 255);&quot;&gt;+ apply_action(action)&lt;br&gt;+ calculate_reward(action)&lt;br&gt;+ update(action)&lt;br&gt;+ mask_current_base&lt;br&gt;&lt;/span&gt;" style="text;html=1;strokeColor=#080808;fillColor=none;align=left;verticalAlign=middle;spacingLeft=4;spacingRight=4;overflow=hidden;rotatable=0;points=[[0,0.5],[1,0.5]];portConstraint=eastwest;shadow=0;" vertex="1" parent="80">
                    <mxGeometry y="60" width="290" height="80" as="geometry"/>
                </mxCell>
                <mxCell id="83" style="edgeStyle=none;html=1;strokeColor=#000305;strokeWidth=2;fontColor=#000305;endArrow=block;endFill=0;endSize=16;fillColor=#000305;exitX=0;exitY=0.5;exitDx=0;exitDy=0;entryX=1.006;entryY=0.229;entryDx=0;entryDy=0;entryPerimeter=0;" edge="1" parent="1" source="81" target="56">
                    <mxGeometry relative="1" as="geometry">
                        <mxPoint x="1225" y="500" as="sourcePoint"/>
                        <mxPoint x="1225" y="370" as="targetPoint"/>
                        <Array as="points">
                            <mxPoint x="1430" y="665"/>
                            <mxPoint x="1430" y="558"/>
                        </Array>
                    </mxGeometry>
                </mxCell>
                <mxCell id="84" value="&lt;font style=&quot;font-size: 36px;&quot;&gt;Initializable&lt;/font&gt;" style="rounded=0;whiteSpace=wrap;html=1;fillColor=#006600;" vertex="1" parent="1">
                    <mxGeometry x="1456" y="-91" width="200" height="40" as="geometry"/>
                </mxCell>
                <mxCell id="85" value="&lt;font style=&quot;font-size: 36px;&quot;&gt;Abstract&lt;/font&gt;" style="rounded=0;whiteSpace=wrap;html=1;fillColor=#000000;" vertex="1" parent="1">
                    <mxGeometry x="1456" y="-41" width="200" height="40" as="geometry"/>
                </mxCell>
                <mxCell id="87" style="edgeStyle=none;html=1;strokeColor=#000305;strokeWidth=2;fontColor=#000305;endArrow=block;endFill=0;endSize=16;fillColor=#000305;exitX=0.087;exitY=0;exitDx=0;exitDy=0;exitPerimeter=0;entryX=0.087;entryY=1.088;entryDx=0;entryDy=0;entryPerimeter=0;" edge="1" parent="1" source="74" target="30">
                    <mxGeometry relative="1" as="geometry">
                        <mxPoint x="1225.44" y="498.17999999999984" as="sourcePoint"/>
                        <mxPoint x="1225.0593872317454" y="370" as="targetPoint"/>
                    </mxGeometry>
                </mxCell>
            </root>
        </mxGraphModel>
    </diagram>
</mxfile>